<?xml version="1.0" encoding="UTF-8"?>
<svg width="21px" height="25px" viewBox="0 0 21 25" version="1.1" xmlns="http://www.w3.org/2000/svg" xmlns:xlink="http://www.w3.org/1999/xlink">
    <!-- Generator: Sketch 47.1 (45422) - http://www.bohemiancoding.com/sketch -->
    <title>icons/icon-map-near</title>
    <desc>Created with Sketch.</desc>
    <defs></defs>
    <g id="_LATEST" stroke="none" stroke-width="1" fill="none" fill-rule="evenodd">
        <g id="02-search-filterby-enterCity" transform="translate(-17.000000, -144.000000)" fill-rule="nonzero" fill="#4A4A4A">
            <g id="icons/icon-map-near" transform="translate(11.000000, 140.000000)">
                <path d="M16.3246837,4.47330729 C12.6646782,4.47330729 9.68182276,7.4560978 9.6818266,11.1161645 C9.68075538,11.1953625 9.6924375,11.2742167 9.71642481,11.3497024 C9.77927599,13.6795772 10.7886913,15.7188067 11.9768415,17.609096 C13.2035739,19.5607669 14.6253259,21.3923133 15.5375744,23.2601371 C15.6598563,23.5116221 15.9137464,23.6724184 16.193368,23.6754712 C16.4729896,23.6785239 16.7303298,23.5233089 16.858073,23.2745536 C17.8158981,21.408206 19.310622,19.575331 20.6004464,17.6235119 C21.8902708,15.6718405 22.990607,13.564002 22.990607,11.1276972 C22.9917798,11.0341147 22.9751458,10.9411627 22.9415915,10.8537946 C22.8003142,7.31716968 19.8949853,4.47330729 16.3246837,4.47330729 Z M16.3246837,5.94949778 C19.1868963,5.94949778 21.491354,8.25397876 21.491351,11.1161645 C21.4904243,11.169388 21.4952574,11.2225556 21.505766,11.2747397 C21.4617652,13.2052976 20.5704975,14.9928962 19.3693272,16.8104539 C18.3539479,18.3470205 17.2059516,19.9335153 16.2151228,21.5821248 C15.2746089,19.940601 14.1910617,18.3568603 13.2281436,16.8248698 C12.0562438,14.9604413 11.1810826,13.1261639 11.1810826,11.1276972 C11.1810689,11.0841941 11.1772097,11.0407774 11.1695498,10.9979539 C11.2335168,8.19219192 13.5029855,5.94949778 16.3246837,5.94949778 Z M16.3246837,8.9047619 C15.11051,8.9047619 14.110398,9.90488095 14.110398,11.1190476 C14.110398,12.3332143 15.11051,13.3333333 16.3246837,13.3333333 C17.5388575,13.3333333 18.5389695,12.3332143 18.5389695,11.1190476 C18.5389695,9.90488095 17.5388575,8.9047619 16.3246837,8.9047619 Z M16.3246837,10.3809524 C16.741065,10.3809524 17.062779,10.7027619 17.062779,11.1190476 C17.062779,11.535481 16.741065,11.8571429 16.3246837,11.8571429 C15.9083025,11.8571429 15.5865885,11.535481 15.5865885,11.1190476 C15.5865885,10.7027619 15.9083025,10.3809524 16.3246837,10.3809524 Z M22.3620716,18.0963542 C22.0062732,18.0961763 21.7009765,18.3498303 21.6359619,18.6996383 C21.5709472,19.0494463 21.7647172,19.3958559 22.0968194,19.52353 C23.5681074,20.119468 24.5138466,20.9008481 24.9223395,21.6196053 C25.3308324,22.3383624 25.3212918,22.9595153 24.7868296,23.7243296 C23.7179275,25.253812 20.305728,26.6082803 16.4111794,26.6248136 C12.5165965,26.6410517 9.0569221,25.3213743 7.92596726,23.78776 C7.36048445,23.0208791 7.33244156,22.395367 7.71261153,21.6801527 C8.0927818,20.965086 9.00369998,20.1769657 10.4516369,19.5696609 C10.7022411,19.4727533 10.880397,19.2473301 10.9167746,18.9811154 C10.9531522,18.7149008 10.8420054,18.4499451 10.6265875,18.2893566 C10.4111695,18.1287682 10.1255069,18.097913 9.8807663,18.2087984 C8.22648953,18.9026079 7.02202527,19.8357265 6.40941228,20.9881884 C5.79679891,22.1405027 5.90282591,23.5315672 6.73809524,24.6642481 C8.40863165,26.9297577 12.2163385,28.1190136 16.4198289,28.1010041 C20.6232816,28.0832898 24.395276,26.8649529 25.9977679,24.5719862 C26.799019,23.4254291 26.8533,22.0302224 26.2053571,20.8901605 C25.5574143,19.7500986 24.3253562,18.832475 22.6503908,18.1540179 C22.5591237,18.1156568 22.4610725,18.0960466 22.3620716,18.0963542 Z" id="map-near"></path>
            </g>
        </g>
    </g>
</svg>