<?xml version="1.0" encoding="utf-8"?>
<!-- Generator: Adobe Illustrator 22.0.0, SVG Export Plug-In . SVG Version: 6.00 Build 0)  -->
<svg version="1.1" id="Layer_1" xmlns="http://www.w3.org/2000/svg" xmlns:xlink="http://www.w3.org/1999/xlink" x="0px" y="0px"
	 viewBox="0 0 32 24" style="enable-background:new 0 0 32 24;" xml:space="preserve">
<style type="text/css">
	.st0{fill:#F88900;}
</style>
<title>icon-pin</title>
<desc>Created with Sketch.</desc>
<g id="Symbols">
	<g id="layout_x2F_header_x2F_mobile_x2F_search_x5F_closed" transform="translate(-666.000000, -18.000000)">
		<g id="icons_x2F_icon-my-jobs" transform="translate(666.000000, 14.000000)">
			<path id="Combined-Shape" class="st0" d="M20.4,14.4v-2.2c0-0.5,0.4-0.9,0.9-0.9c0.5,0,0.9,0.4,0.9,0.9v2.2
				c0,0.5-0.4,0.9-0.9,0.9C20.8,15.2,20.4,14.8,20.4,14.4z M26.8,15.2c0.5,0,0.9-0.4,0.9-0.9v-2.2c0-0.5-0.4-0.9-0.9-0.9
				S26,11.6,26,12.1v2.2C26,14.8,26.3,15.2,26.8,15.2z M30.7,12.5h-1.4c-0.4,0-0.7,0.3-0.7,0.7s0.3,0.7,0.7,0.7H30v11.8H18.1V13.9
				h0.7c0.4,0,0.7-0.3,0.7-0.7s-0.3-0.7-0.7-0.7h-1.4c-0.4,0-0.7,0.4-0.7,0.8v13.2c0,0.4,0.3,0.7,0.7,0.7h13.2
				c0.4,0,0.7-0.3,0.7-0.7V13.2C31.4,12.9,31,12.5,30.7,12.5z M20.9,18.9h6.2c0.4,0,0.7-0.5,0.7-1c0-0.6-0.3-1-0.7-1h-6.2
				c-0.4,0-0.7,0.5-0.7,1C20.2,18.4,20.6,18.9,20.9,18.9z M20.9,22h6.2c0.4,0,0.7-0.5,0.7-1c0-0.6-0.3-1-0.7-1h-6.2
				c-0.4,0-0.7,0.5-0.7,1C20.2,21.5,20.6,22,20.9,22z M23.5,13.9c-0.4,0-0.7-0.3-0.7-0.7s0.3-0.7,0.7-0.7h1.1c0.4,0,0.7,0.3,0.7,0.7
				s-0.3,0.7-0.7,0.7H23.5z M10,4c2.9,0,5.3,2.4,5.3,5.3v3.5c0,1.6-0.8,3.1-2,4.1c0.9,0.3,1.6,0.7,2.4,1.2c0,0.1,0,0.8,0,2.4
				c-0.2-0.2-0.4-0.4-0.6-0.6c-1.3-1.1-2.9-1.8-4.8-1.9c-0.1,0-0.2,0-0.3,0c-0.1,0-0.1,0-0.2,0c-4,0.1-7.3,3.1-7.9,7l14.2,0.1v1.1
				c0,0.4,0.1,0.6,0.3,0.7L0.8,26.9C0.4,26.9,0,26.5,0,26c0.1-4.2,2.9-7.8,6.6-9.1c-1.2-1-2-2.4-2-4.1V9.3C4.7,6.4,7,4,10,4z
				 M10,5.8c-2,0-3.5,1.6-3.5,3.5v3.5c0,1.9,1.4,3.4,3.2,3.5c0.2,0,0.4,0,0.6,0c0,0,0,0,0.1,0c1.8-0.2,3.2-1.6,3.2-3.5V9.3
				C13.5,7.3,11.9,5.8,10,5.8z"/>
		</g>
	</g>
</g>
</svg>
