<?xml version="1.0" encoding="UTF-8"?>
<svg width="32px" height="24px" viewBox="0 0 32 24" version="1.1" xmlns="http://www.w3.org/2000/svg" xmlns:xlink="http://www.w3.org/1999/xlink">
    <!-- Generator: Sketch 47.1 (45422) - http://www.bohemiancoding.com/sketch -->
    <title>icon-pin</title>
    <desc>Created with Sketch.</desc>
    <defs></defs>
    <g id="Symbols" stroke="none" stroke-width="1" fill="none" fill-rule="evenodd">
        <g id="layout/header/mobile/search_closed" transform="translate(-666.000000, -18.000000)" fill-rule="nonzero" fill="#FFFFFF">
            <g id="icons/icon-my-jobs" transform="translate(666.000000, 14.000000)">
                <path d="M20.3864019,14.353657 L20.3864019,12.1236204 C20.3864019,11.6357998 20.7696895,11.2525123 21.25751,11.2525123 C21.7453305,11.2525123 22.128618,11.6357998 22.128618,12.1236204 L22.128618,14.353657 C22.128618,14.8414775 21.7453305,15.224765 21.25751,15.224765 C20.7696895,15.224765 20.3864019,14.8414775 20.3864019,14.353657 Z M26.8326016,15.224765 C27.3204221,15.224765 27.7037096,14.8414775 27.7037096,14.353657 L27.7037096,12.1236204 C27.7037096,11.6357998 27.3204221,11.2525123 26.8326016,11.2525123 C26.3447811,11.2525123 25.9614935,11.6357998 25.9614935,12.1236204 L25.9614935,14.353657 C25.9614935,14.8414775 26.3447811,15.224765 26.8326016,15.224765 Z M30.665477,12.4720636 L29.2194376,12.4720636 C28.8361501,12.4720636 28.5225512,12.7856625 28.5225512,13.16895 C28.5225512,13.5522376 28.8361501,13.8658365 29.2194376,13.8658365 L29.9685906,13.8658365 L29.9685906,25.7129061 L18.121521,25.7129061 L18.121521,13.8658365 L18.8706739,13.8658365 C19.2539615,13.8658365 19.5675604,13.5522376 19.5675604,13.16895 C19.5675604,12.7856625 19.2539615,12.4720636 18.8706739,12.4720636 L17.4246345,12.4720636 C17.041347,12.4720636 16.7277481,12.8553511 16.7277481,13.2386387 L16.7277481,26.4097925 C16.7277481,26.7930801 17.041347,27.106679 17.4246345,27.106679 L30.665477,27.106679 C31.0487646,27.106679 31.3623635,26.7930801 31.3623635,26.4097925 L31.3623635,13.2386387 C31.3623635,12.8553511 31.0487646,12.4720636 30.665477,12.4720636 Z M20.9439111,18.864011 L27.1287783,18.864011 C27.5120659,18.864011 27.8256648,18.4058194 27.8256648,17.8458074 C27.8256648,17.2857955 27.5120659,16.8276039 27.1287783,16.8276039 L20.9439111,16.8276039 C20.5606235,16.8276039 20.2470246,17.2857955 20.2470246,17.8458074 C20.2470246,18.4058194 20.5606235,18.864011 20.9439111,18.864011 Z M20.9439111,22 L27.1287783,22 C27.5120659,22 27.8256648,21.5418084 27.8256648,20.9817964 C27.8256648,20.4217845 27.5120659,19.9635929 27.1287783,19.9635929 L20.9439111,19.9635929 C20.5606235,19.9635929 20.2470246,20.4217845 20.2470246,20.9817964 C20.2470246,21.5418084 20.5606235,22 20.9439111,22 Z M23.4701245,13.8658365 C23.0868369,13.8658365 22.773238,13.5522376 22.773238,13.16895 C22.773238,12.7856625 23.0868369,12.4720636 23.4701245,12.4720636 L24.6199871,12.4720636 C25.0032746,12.4720636 25.3168735,12.7856625 25.3168735,13.16895 C25.3168735,13.5522376 25.0032746,13.8658365 24.6199871,13.8658365 L23.4701245,13.8658365 Z M9.95059876,4 C12.8682777,4 15.2447164,6.37635291 15.2447164,9.29411761 L15.2447164,12.8235294 C15.2447164,14.4703758 14.4712631,15.9289831 13.2869958,16.9009651 C14.1377334,17.2093185 14.9366242,17.6224709 15.661766,18.1314338 C15.661766,18.1874858 15.661766,18.9774563 15.661766,20.5013453 C15.4204122,20.2720627 15.2182063,20.0887101 15.0551484,19.9512874 C13.7612169,18.8607825 12.1079334,18.1595738 10.2745878,18.0866268 C10.1653554,18.0933926 10.0614957,18.117647 9.95059876,18.117647 C9.89871447,18.117647 9.85047588,18.105353 9.79894435,18.1038603 C5.77354735,18.1832507 2.51781324,21.2022857 1.93014835,25.135111 L16.1029425,25.190258 L16.1029425,26.2438465 C16.1029425,26.6232582 16.1863231,26.8049647 16.3786778,26.9549639 L0.827207212,26.8998168 C0.383908982,26.8719345 -0.000825188404,26.4614639 1.3292433e-06,26.0174639 C0.128226359,21.7988674 2.86334459,18.249698 6.61075506,16.8975184 C5.42806735,15.9255116 4.65648112,14.4690996 4.65648112,12.8235294 L4.65648112,9.29411761 C4.65648112,6.37635291 7.03291982,4 9.95059876,4 Z M9.95059876,5.76470585 C7.98004241,5.76470585 6.421187,7.32347055 6.421187,9.29411761 L6.421187,12.8235294 C6.421187,14.6910179 7.82692065,16.173905 9.65073659,16.3253676 C9.85310918,16.3191661 10.0522709,16.3053294 10.2573542,16.3115808 C10.2773065,16.3121861 10.2960249,16.3177469 10.3159479,16.3184743 C12.1075377,16.1368993 13.4800105,14.668499 13.4800105,12.8235294 L13.4800105,9.29411761 C13.4800105,7.32347055 11.9211551,5.76470585 9.95059876,5.76470585 Z" id="Combined-Shape"></path>
            </g>
        </g>
    </g>
</svg>