<?xml version="1.0" encoding="UTF-8"?>
<svg width="18px" height="22px" viewBox="0 0 18 22" version="1.1" xmlns="http://www.w3.org/2000/svg" xmlns:xlink="http://www.w3.org/1999/xlink">
    <!-- Generator: Sketch 46.2 (44496) - http://www.bohemiancoding.com/sketch -->
    <title>icon-orders</title>
    <desc>Created with Sketch.</desc>
    <defs></defs>
    <g id="Symbols" stroke="none" stroke-width="1" fill="none" fill-rule="evenodd">
        <g id="icon-orders" transform="translate(-7.000000, -5.000000)">
            <rect id="icon-bg" fill="#4A4A4A" opacity="0" x="0" y="0" width="32" height="32"></rect>
            <path d="M22,8.5 L22,12 L21.5,12 L10,12 L10,11.5 L10,8 L10.5,8 L22,8 L22,8.5 Z M21,9 L11,9 L11,11 L21,11 L21,9 Z M7,5 L25,5 L25,26.4520615 C25,26.6658912 24.7923077,26.8262634 24.5846154,26.9331782 C24.5153846,26.9866356 24.4461538,26.9866356 24.3076923,26.9866356 C24.1692308,26.9866356 24.0307692,26.9331782 23.8923077,26.8797208 L21.5384615,25.5432854 L19.1846154,26.8797208 C18.9076923,27.0400931 18.6307692,27.0400931 18.3538462,26.8797208 L16,25.5432854 L13.6461538,26.8797208 C13.3692308,27.0400931 13.0923077,27.0400931 12.8153846,26.8797208 L10.4615385,25.5432854 L8.10769231,26.8797208 C7.9,26.9866356 7.62307692,27.0400931 7.41538462,26.9331782 C7.13846154,26.8262634 7,26.6658912 7,26.4520615 L7,5 Z M24,25.3829132 L24,5.96545389 L8,5.96545389 L8,25.3829132 L9.74545455,24.4741371 C10.0363636,24.3137649 10.3272727,24.3137649 10.6181818,24.4741371 L13.0909091,25.8105725 L15.5636364,24.4206797 C15.7090909,24.3672223 15.8545455,24.3137649 16,24.3137649 C16.1454545,24.3137649 16.2909091,24.3672223 16.4363636,24.4741371 L18.9090909,25.8105725 L21.3818182,24.4206797 C21.6727273,24.2603075 21.9636364,24.2603075 22.2545455,24.4206797 L24,25.3829132 Z M10,18 L19,18 L19,19 L10,19 L10,18 Z M10,20 L19,20 L19,21 L10,21 L10,20 Z M10,14 L19,14 L19,15 L10,15 L10,14 Z M10,16 L19,16 L19,17 L10,17 L10,16 Z M20,18 L22,18 L22,19 L20,19 L20,18 Z M20,20 L22,20 L22,21 L20,21 L20,20 Z M20,14 L22,14 L22,15 L20,15 L20,14 Z M20,16 L22,16 L22,17 L20,17 L20,16 Z" id="order" fill="#FFFFFF" fill-rule="nonzero"></path>
        </g>
    </g>
</svg>