<?xml version="1.0" encoding="UTF-8"?>
<svg width="40px" height="26px" viewBox="0 0 40 26" version="1.1" xmlns="http://www.w3.org/2000/svg" xmlns:xlink="http://www.w3.org/1999/xlink">
    <!-- Generator: Sketch 47.1 (45422) - http://www.bohemiancoding.com/sketch -->
    <title>quickload-truck</title>
    <desc>Created with Sketch.</desc>
    <defs></defs>
    <g id="Symbols" stroke="none" stroke-width="1" fill="none" fill-rule="evenodd">
        <g id="layout/header/mobile/default" transform="translate(-18.000000, -19.000000)" fill="#FFFFFF">
            <path d="M26.6663657,35.1672289 C26.6663657,35.3474383 26.6783796,35.5245329 26.7019626,35.6985129 L25.762204,35.6985129 C24.0361986,35.6989578 22.8646152,33.9489245 23.5276077,32.3488431 L27.8575275,32.3488431 C27.1228961,33.0630063 26.6663657,34.0619447 26.6663657,35.1672289 Z M56.4822365,26.9683694 L56.4835714,26.9705942 L58,27.4035417 L57.2093035,34.2839804 C57.1145267,35.108494 56.4168272,35.7305501 55.5869741,35.7305501 L54.168882,35.730995 C53.9108044,37.6514486 52.265337,39.1331702 50.2741345,39.1331702 C48.1036127,39.1331702 46.3437902,37.3733477 46.3437902,35.2028258 C46.3437902,33.1764714 47.8771273,31.508756 49.8465266,31.2956194 C49.7063638,31.2804907 49.5635311,31.2724814 49.4193636,31.2724814 C47.2488417,31.2724814 45.4890192,33.0323039 45.4890192,35.2028258 C45.4890192,35.3821453 45.5014782,35.558795 45.5246162,35.731885 L35.3470132,35.7332198 C35.0876007,37.6527835 33.4430232,39.1331702 31.4522657,39.1331702 C29.2817438,39.1331702 27.5223663,37.3733477 27.5223663,35.2028258 C27.5223663,33.0839194 29.198981,31.3570241 31.2983091,31.2760411 L31.2689416,31.2649171 L24.0249694,31.2649171 C22.298519,31.2649171 21.1269355,29.511769 21.7890382,27.9174722 L37.1166248,27.9183621 C37.8396872,27.9183621 38.4915557,27.4836348 38.7696566,26.8157477 L22.2228756,26.8153027 C20.4968701,26.8153027 19.3261766,25.0590399 19.9896141,23.465633 L41.1795677,23.4642981 C41.9017401,23.4642981 42.5531637,23.0260111 42.8285948,22.3594589 L20.4216717,22.3594589 C18.6952213,22.3594589 17.5249727,20.5996364 18.1884102,19.0266977 L49.7459653,19.0266977 C49.7508599,19 49.7553095,19 49.7602041,19 L53.9063548,19 L53.9063548,19.6950298 C53.9063548,20.0714671 53.6082306,20.3864998 53.2317932,20.3864998 L52.57681,20.3864998 L55.8988921,25.9872295 L53.6202446,25.6250309 L50.9909674,21.2127932 L48.2215274,21.2127932 L48.1890452,24.6091839 L52.5630162,25.8524061 L52.5616813,25.8568558 L56.4822365,26.9683694 Z M50.2741345,36.6618544 C51.0799597,36.6618544 51.7331631,36.008651 51.7331631,35.2028258 C51.7331631,34.3970006 51.0799597,33.7437973 50.2741345,33.7437973 C49.4683094,33.7437973 48.815106,34.3970006 48.815106,35.2028258 C48.815106,36.008651 49.4683094,36.6618544 50.2741345,36.6618544 Z M31.4522657,36.6618544 C32.2580909,36.6618544 32.9112943,36.008651 32.9112943,35.2028258 C32.9112943,34.3970006 32.2580909,33.7437973 31.4522657,33.7437973 C30.6464405,33.7437973 29.9932372,34.3970006 29.9932372,35.2028258 C29.9932372,36.008651 30.6464405,36.6618544 31.4522657,36.6618544 Z M34.2461668,32.4369099 L34.3835378,32.4369099 L34.1589661,32.3532928 C34.1876349,32.3807669 34.2174981,32.4094357 34.2461668,32.4369099 Z M55.7229408,43.0870975 C55.7229408,43.8568808 48.9715409,44.4807168 40.6436426,44.4807168 C32.3157444,44.4807168 25.5643444,43.8568808 25.5643444,43.0870975 C25.5643444,42.3168693 32.3157444,41.6930333 40.6436426,41.6930333 C48.9715409,41.6930333 55.7229408,42.3168693 55.7229408,43.0870975 Z" id="quickload-truck"></path>
        </g>
    </g>
</svg>