<?xml version="1.0" encoding="UTF-8"?>
<svg width="436px" height="76px" viewBox="0 0 436 76" version="1.1" xmlns="http://www.w3.org/2000/svg" xmlns:xlink="http://www.w3.org/1999/xlink">
    <!-- Generator: Sketch 46.2 (44496) - http://www.bohemiancoding.com/sketch -->
    <title>Quickload-Horizontal logo-color-</title>
    <desc>Created with Sketch.</desc>
    <defs>
        <polygon id="path-1" points="50.0575 61 0.06 61 0.06 0.964 100.055 0.964 100.055 61"></polygon>
    </defs>
    <g id="Symbols" stroke="none" stroke-width="1" fill="none" fill-rule="evenodd">
        <g id="Quickload-Horizontal-logo-color-">
            <g id="Group-4" transform="translate(0.000000, 15.000000)">
                <mask id="mask-2" fill="white">
                    <use xlink:href="#path-1"></use>
                </mask>
                <g id="Clip-2"></g>
                <polygon id="Fill-1" fill="#393A37" mask="url(#mask-2)" points="88.389 45.539 100.055 45.539 100.055 2.009 88.389 2.009"></polygon>
                <path d="M11.666,24.384 C11.666,33.176 14.538,36.136 19.065,36.136 C22.549,36.136 26.9,35.005 26.9,35.005 L26.9,11.412 C26.9,11.412 23.68,11.063 21.59,11.063 C13.581,11.063 11.666,14.981 11.666,24.384 Z M0,24.384 C0,5.665 6.267,0.964 21.59,0.964 C26.639,0.964 38.567,2.096 38.567,2.096 L38.567,61 L26.9,61 L26.9,44.233 C26.9,44.233 21.329,46.584 17.499,46.584 C5.658,46.584 0,41.099 0,24.384 L0,24.384 Z" id="Fill-3" fill="#393A37" mask="url(#mask-2)"></path>
            </g>
            <path d="M82.154,17.009 L82.154,60.539 L70.574,60.539 L70.574,58.101 C70.574,58.101 64.306,61.584 59.691,61.584 C46.98,61.584 44.369,54.532 44.369,39.819 L44.369,17.009 L56.035,17.009 L56.035,39.992 C56.035,47.741 56.384,51.136 62.13,51.136 C66.483,51.136 70.487,49.569 70.487,49.569 L70.487,17.009 L82.154,17.009" id="Fill-5" fill="#393A37"></path>
            <path d="M137.804,17.879 L137.456,27.108 C137.456,27.108 130.578,26.412 127.269,26.412 C119.15,26.412 117.44,29.452 117.349,37.608 C117.346,37.847 117.345,38.091 117.345,38.339 C117.345,48.089 118.998,51.136 127.356,51.136 C130.665,51.136 137.456,50.44 137.456,50.44 L137.804,59.755 C137.804,59.755 128.489,61.584 123.613,61.584 C110.641,61.584 105.504,54.705 105.504,38.339 C105.504,37.969 105.507,37.604 105.513,37.244 C105.767,22.598 111.213,15.964 123.874,15.964 C128.924,15.964 137.804,17.879 137.804,17.879" id="Fill-6" fill="#393A37"></path>
            <polyline id="Fill-7" fill="#393A37" points="143.164 60.539 143.164 1.324 154.83 1.324 154.83 34.247 159.269 33.463 167.888 17.009 180.947 17.009 169.629 37.641 181.557 60.539 168.411 60.539 159.618 43.562 154.83 44.346 154.83 60.539 143.164 60.539"></polyline>
            <polygon id="Fill-8" fill="#E46F2F" points="186.561 60.539 198.227 60.539 198.227 1.324 186.561 1.324"></polygon>
            <path d="M230.933,38.686 C230.933,30.242 229.192,25.889 222.749,25.889 C216.307,25.889 214.565,30.242 214.565,38.686 C214.565,47.132 216.307,51.658 222.749,51.658 C229.192,51.658 230.933,47.132 230.933,38.686 Z M242.772,38.686 C242.772,52.093 237.897,61.584 222.749,61.584 C207.6,61.584 202.725,52.093 202.725,38.686 C202.725,25.279 207.6,15.964 222.749,15.964 C237.897,15.964 242.772,25.279 242.772,38.686 L242.772,38.686 Z" id="Fill-9" fill="#E46F2F"></path>
            <path d="M263.098,42.082 C260.051,42.343 258.224,43.823 258.224,46.958 C258.224,50.005 259.355,52.093 262.49,52.093 C266.233,52.093 271.021,50.701 271.021,50.701 L271.021,41.386 L263.098,42.082 Z M282.687,48.699 C282.861,51.31 283.21,52.355 285.561,52.791 L285.212,61.584 C279.379,61.584 276.419,60.974 272.762,58.536 C272.762,58.536 266.494,61.584 259.965,61.584 C250.823,61.584 246.47,56.534 246.47,47.305 C246.47,37.468 252.13,34.682 261.706,33.986 L271.021,33.289 L271.021,30.59 C271.021,26.846 269.367,25.889 265.884,25.889 C260.139,25.889 249.517,26.585 249.517,26.585 L249.169,18.489 C249.169,18.489 258.485,15.964 266.843,15.964 C278.16,15.964 282.687,20.404 282.687,30.59 L282.687,48.699 L282.687,48.699 Z" id="Fill-10" fill="#E46F2F"></path>
            <path d="M315.905,49.83 L315.905,26.934 C315.905,26.934 311.117,26.063 307.372,26.063 C303.021,26.063 300.321,29.806 300.321,38.6 C300.321,47.48 301.976,51.136 307.46,51.136 C311.552,51.136 315.905,49.83 315.905,49.83 Z M327.571,60.539 L315.991,60.539 L315.991,58.71 C315.991,58.71 309.897,61.584 305.458,61.584 C292.312,61.584 288.481,53.922 288.481,38.6 C288.481,22.668 294.663,15.964 306.503,15.964 C309.723,15.964 315.905,17.183 315.905,17.183 L315.905,1.324 L327.571,1.324 L327.571,60.539 L327.571,60.539 Z" id="Fill-11" fill="#E46F2F"></path>
            <path d="M94.177,13.237 L94.177,13.237 C90.709,13.237 87.871,10.399 87.871,6.93 C87.871,3.461 90.709,0.623 94.177,0.623 C97.646,0.623 100.484,3.461 100.484,6.93 C100.484,10.399 97.646,13.237 94.177,13.237" id="Fill-12" fill="#393A37"></path>
            <path d="M365.523,46.021 C365.523,43.537 366.549,41.292 368.2,39.687 L358.469,39.687 C356.979,43.283 359.612,47.216 363.491,47.215 L365.603,47.215 C365.55,46.824 365.523,46.426 365.523,46.021" id="Fill-13" fill="#E46F2F"></path>
            <path d="M418.452,49.3 C416.641,49.3 415.173,47.832 415.173,46.021 C415.173,44.21 416.641,42.742 418.452,42.742 C420.263,42.742 421.731,44.21 421.731,46.021 C421.731,47.832 420.263,49.3 418.452,49.3 Z M382.308,39.687 C382.284,39.664 382.259,39.64 382.235,39.617 L382.423,39.687 L382.308,39.687 Z M376.152,49.3 C374.341,49.3 372.873,47.832 372.873,46.021 C372.873,44.21 374.341,42.742 376.152,42.742 C377.963,42.742 379.431,44.21 379.431,46.021 C379.431,47.832 377.963,49.3 376.152,49.3 Z M432.404,27.515 L423.593,25.017 L423.596,25.007 L413.766,22.213 L413.839,14.58 L420.063,14.58 L425.972,24.496 L431.093,25.31 L423.627,12.723 L425.099,12.723 C425.945,12.723 426.615,12.015 426.615,11.169 L426.615,9.607 L417.297,9.607 C417.286,9.607 417.276,9.607 417.265,9.667 L346.343,9.667 C344.852,13.202 347.482,17.157 351.362,17.157 L401.719,17.157 C401.1,18.655 399.636,19.64 398.013,19.64 L350.391,19.643 C348.9,23.224 351.531,27.171 355.41,27.171 L392.597,27.172 C391.972,28.673 390.507,29.65 388.882,29.65 L354.435,29.648 C352.947,33.231 355.58,37.171 359.46,37.171 L375.74,37.171 L375.806,37.196 C371.088,37.378 367.32,41.259 367.32,46.021 C367.32,50.899 371.274,54.854 376.152,54.854 C380.626,54.854 384.322,51.527 384.905,47.213 L407.778,47.21 C407.726,46.821 407.698,46.424 407.698,46.021 C407.698,41.143 411.653,37.188 416.531,37.188 C416.855,37.188 417.176,37.206 417.491,37.24 C413.065,37.719 409.619,41.467 409.619,46.021 C409.619,50.899 413.574,54.854 418.452,54.854 C422.927,54.854 426.625,51.524 427.205,47.208 L430.392,47.207 C432.257,47.207 433.825,45.809 434.038,43.956 L435.815,28.493 L432.407,27.52 L432.404,27.515 L432.404,27.515 Z" id="Fill-14" fill="#E46F2F"></path>
            <path d="M431.284,63.354 C431.284,65.084 416.111,66.486 397.395,66.486 C378.679,66.486 363.506,65.084 363.506,63.354 C363.506,61.623 378.679,60.221 397.395,60.221 C416.111,60.221 431.284,61.623 431.284,63.354" id="Fill-15" fill="#E46F2F"></path>
        </g>
    </g>
</svg>