<?xml version="1.0" encoding="UTF-8"?>
<svg width="20px" height="20px" viewBox="0 0 20 20" version="1.1" xmlns="http://www.w3.org/2000/svg" xmlns:xlink="http://www.w3.org/1999/xlink">
    <!-- Generator: Sketch 46.2 (44496) - http://www.bohemiancoding.com/sketch -->
    <title>icons/drop</title>
    <desc>Created with Sketch.</desc>
    <defs>
        <path d="M2,3 L12,3 L12,15 L2,15 L2,3 Z M3,4 L3,14 L11,14 L11,4 L3,4 Z M3,15 L5,15 L5,17 L3,17 L3,15 Z M9,15 L11,15 L11,17 L9,17 L9,15 Z M16,8.5 L17.6213203,8.5 L15.5,10.6213203 L13.3786797,8.5 L15,8.5 L15,5 L16,5 L16,8.5 Z M13,12 L18,12 L18,17 L13,17 L13,12 Z" id="path-1"></path>
    </defs>
    <g id="Symbols" stroke="none" stroke-width="1" fill="none" fill-rule="evenodd">
        <g id="icons/drop">
            <mask id="mask-2" fill="white">
                <use xlink:href="#path-1"></use>
            </mask>
            <use id="Combined-Shape" fill="#9B9B9B" xlink:href="#path-1"></use>
            <g id="colors/drop" mask="url(#mask-2)" fill="#DD908B">
                <rect id="Rectangle-Copy" x="0" y="0" width="20" height="20"></rect>
            </g>
        </g>
    </g>
</svg>