<?xml version="1.0" encoding="UTF-8"?>
<svg width="69px" height="44px" viewBox="0 0 69 44" version="1.1" xmlns="http://www.w3.org/2000/svg" xmlns:xlink="http://www.w3.org/1999/xlink">
    <!-- Generator: Sketch 47.1 (45422) - http://www.bohemiancoding.com/sketch -->
    <title>Page 1</title>
    <desc>Created with Sketch.</desc>
    <defs>
        <polygon id="path-1" points="51.9814993 5 0.283865066 5 0.283865066 0.26025 51.9814993 0.26025 51.9814993 5"></polygon>
    </defs>
    <g id="Symbols" stroke="none" stroke-width="1" fill="none" fill-rule="evenodd">
        <g id="icons/brandmark">
            <g id="Page-1">
                <path d="M14.8916004,28.0478486 C14.8916004,26.0684809 15.6992958,24.2787532 17,23 L9.33344986,23 C8.15862021,25.8656714 10.2329288,29.0013165 13.2893215,28.9999996 L14.9545377,28.9999996 C14.9125795,28.6878837 14.8916004,28.3705001 14.8916004,28.0478486" id="Fill-1" fill="#757575"></path>
                <path d="M66.3815011,13.8525159 L59.61811,11.9201417 L59.6206647,11.9124735 L52.0768332,9.7513328 L52.1317578,3.84685606 L56.9089216,3.84685606 L61.4446727,11.5175637 L65.376253,12.1476302 L59.6449337,2.41035566 L60.7740815,2.41035566 C61.4242356,2.41035566 61.9377169,1.86336084 61.9377169,1.20773388 L61.9377169,0 L54.7860216,0 C54.7783577,0 54.7694164,0 54.7617525,0.0460089097 L0.325076282,0.0460089097 C-0.819399337,2.78098298 1.19876079,5.83929745 4.17746296,5.83929745 L42.8303387,5.83929745 C42.3538997,6.99846637 41.2311384,7.76016943 39.9844775,7.76016943 L3.4315101,7.76272548 C2.28703449,10.5334843 4.30647193,13.5866866 7.28389679,13.5866866 L35.8268122,13.5866866 C35.3478185,14.7484116 34.2225026,15.5037245 32.9758417,15.5037245 L6.53538929,15.5024465 C5.39346831,18.2732053 7.41418307,21.3212956 10.3928852,21.3212956 L22.8888729,21.3212956 L22.9386883,21.3404659 C19.3174959,21.4823267 16.4256513,24.4844081 16.4256513,28.1676769 C16.4256513,31.9416855 19.4618327,35 23.2043701,35 C26.6390743,35 29.474717,32.4273351 29.9230551,29.0891331 L47.479771,29.0865771 C47.4401741,28.7862411 47.4184598,28.4795151 47.4184598,28.1676769 C47.4184598,24.3949463 50.4533639,21.3340758 54.1984559,21.3340758 C54.4462554,21.3340758 54.6940548,21.3494121 54.9354676,21.3749726 C51.5378056,21.7455999 48.8937604,24.6454393 48.8937604,28.1676769 C48.8937604,31.9416855 51.9286645,35 55.6724792,35 C59.1084607,35 61.9453808,32.4247791 62.3911642,29.0852991 L64.8372254,29.084021 C66.2690972,29.084021 67.4723294,28.0040897 67.6358259,26.5701453 L69,14.6091068 L66.3840557,13.85635 L66.3815011,13.8525159 Z M23.2043701,30.7045571 C21.8146497,30.7045571 20.6880565,29.5683926 20.6880565,28.1676769 C20.6880565,26.7669612 21.8146497,25.6307968 23.2043701,25.6307968 C24.5953678,25.6307968 25.721961,26.7669612 25.721961,28.1676769 C25.721961,29.5683926 24.5953678,30.7045571 23.2043701,30.7045571 L23.2043701,30.7045571 Z M27.929164,23.2690061 C27.9112816,23.2498357 27.8921218,23.2306653 27.8742394,23.214051 L28.0185762,23.2690061 L27.929164,23.2690061 Z M55.6724792,30.7045571 C54.2827588,30.7045571 53.1561657,29.5683926 53.1561657,28.1676769 C53.1561657,26.7669612 54.2827588,25.6307968 55.6724792,25.6307968 C57.0621996,25.6307968 58.1900701,26.7669612 58.1900701,28.1676769 C58.1900701,29.5683926 57.0621996,30.7045571 55.6724792,30.7045571 L55.6724792,30.7045571 Z" id="Fill-3" fill="#757575"></path>
                <g id="Group-7" transform="translate(13.000000, 39.000000)">
                    <mask id="mask-2" fill="white">
                        <use xlink:href="#path-1"></use>
                    </mask>
                    <g id="Clip-6"></g>
                    <path d="M51.9814993,2.63025 C51.9814993,3.939 40.4092208,5.00025 26.1333168,5.00025 C11.8574129,5.00025 0.283865066,3.939 0.283865066,2.63025 C0.283865066,1.32025 11.8574129,0.26025 26.1333168,0.26025 C40.4092208,0.26025 51.9814993,1.32025 51.9814993,2.63025" id="Fill-5" fill="#757575" mask="url(#mask-2)"></path>
                </g>
            </g>
        </g>
    </g>
</svg>