<?xml version="1.0" encoding="UTF-8"?>
<svg width="25px" height="25px" viewBox="0 0 25 25" version="1.1" xmlns="http://www.w3.org/2000/svg" xmlns:xlink="http://www.w3.org/1999/xlink">
    <!-- Generator: Sketch 46.2 (44496) - http://www.bohemiancoding.com/sketch -->
    <title>icon-pin-orange</title>
    <desc>Created with Sketch.</desc>
    <defs>
        <path d="M21.4,6.2 C22.1731986,6.2 22.8,5.57319865 22.8,4.8 L22.8,3.4 L6,3.4 L6,4.8 C6,5.57319865 6.62680135,6.2 7.4,6.2 L7.4,17.4 C6.62680135,17.4 6,18.0268014 6,18.8 L6,20.2 L22.8,20.2 L22.8,18.8 C22.8,18.0268014 22.1731986,17.4 21.4,17.4 L21.4,6.2 Z M13,20.2 L15.8,20.2 L15.8,24.4 C15.8,25.1731986 15.1731986,25.8 14.4,25.8 C13.6268014,25.8 13,25.1731986 13,24.4 L13,20.2 Z" id="path-1"></path>
    </defs>
    <g id="Symbols" stroke="none" stroke-width="1" fill="none" fill-rule="evenodd">
        <g id="icons/icon-pin_has" transform="translate(-4.000000, -3.000000)">
            <g id="icon-pin-orange" transform="translate(0.000000, 3.000000)">
                <mask id="mask-2" fill="white">
                    <use xlink:href="#path-1"></use>
                </mask>
                <use id="pin-o" fill="#F88900" fill-rule="nonzero" transform="translate(14.400000, 14.600000) rotate(45.000000) translate(-14.400000, -14.600000) " xlink:href="#path-1"></use>
            </g>
        </g>
    </g>
</svg>