<?xml version="1.0" encoding="UTF-8"?>
<svg width="13px" height="21px" viewBox="0 0 13 21" version="1.1" xmlns="http://www.w3.org/2000/svg" xmlns:xlink="http://www.w3.org/1999/xlink">
    <!-- Generator: Sketch 47.1 (45422) - http://www.bohemiancoding.com/sketch -->
    <title>Page 1</title>
    <desc>Created with Sketch.</desc>
    <defs></defs>
    <g id="Symbols" stroke="none" stroke-width="1" fill="none" fill-rule="evenodd">
        <g id="mapmarker" stroke="#999999">
            <g id="Page-1">
                <path d="M6.5,20.5 C6.347,20.5 6.202,20.43 6.107,20.309 C6.05,20.236 4.689,18.495 3.309,15.924 C2.497,14.41 1.85,12.925 1.384,11.508 C0.798,9.72 0.5,8.036 0.5,6.5 C0.5,3.192 3.192,0.5 6.5,0.5 C9.808,0.5 12.5,3.192 12.5,6.5 C12.5,8.036 12.202,9.72 11.616,11.508 C11.15,12.925 10.503,14.41 9.691,15.924 C8.311,18.495 6.95,20.236 6.893,20.309 C6.798,20.43 6.653,20.5 6.5,20.5 Z M6.5,1.5 C3.743,1.5 1.5,3.743 1.5,6.5 C1.5,9.754 2.963,13.164 4.191,15.451 C5.093,17.132 6,18.465 6.5,19.161 C7.002,18.462 7.915,17.121 8.818,15.435 C10.042,13.152 11.5,9.748 11.5,6.5 C11.5,3.743 9.257,1.5 6.5,1.5 Z" id="Stroke-1"></path>
                <path d="M6.5,9.5 C4.846,9.5 3.5,8.154 3.5,6.5 C3.5,4.846 4.846,3.5 6.5,3.5 C8.154,3.5 9.5,4.846 9.5,6.5 C9.5,8.154 8.154,9.5 6.5,9.5 Z M6.5,4.5 C5.397,4.5 4.5,5.397 4.5,6.5 C4.5,7.603 5.397,8.5 6.5,8.5 C7.603,8.5 8.5,7.603 8.5,6.5 C8.5,5.397 7.603,4.5 6.5,4.5 Z" id="Stroke-3"></path>
            </g>
        </g>
    </g>
</svg>