<?xml version="1.0" encoding="UTF-8"?>
<svg width="10px" height="10px" viewBox="0 0 10 10" version="1.1" xmlns="http://www.w3.org/2000/svg" xmlns:xlink="http://www.w3.org/1999/xlink">
    <!-- Generator: Sketch 46.2 (44496) - http://www.bohemiancoding.com/sketch -->
    <title>icons/pick-xs</title>
    <desc>Created with Sketch.</desc>
    <defs>
        <path d="M1,1.5 L6,1.5 L6,7.5 L1,7.5 L1,1.5 Z M1.5,2 L1.5,7 L5.5,7 L5.5,2 L1.5,2 Z M1.5,7.5 L2.5,7.5 L2.5,8.5 L1.5,8.5 L1.5,7.5 Z M4.5,7.5 L5.5,7.5 L5.5,8.5 L4.5,8.5 L4.5,7.5 Z M8,6.56066017 L8,8.5 L7.5,8.5 L7.5,6.56066017 L6.68933983,6.56066017 L7.75,5.5 L8.81066017,6.56066017 L8,6.56066017 Z M6.5,2.5 L9,2.5 L9,5 L6.5,5 L6.5,2.5 Z" id="path-1"></path>
    </defs>
    <g id="Symbols" stroke="none" stroke-width="1" fill="none" fill-rule="evenodd">
        <g id="icons/pick-xs">
            <mask id="mask-2" fill="white">
                <use xlink:href="#path-1"></use>
            </mask>
            <use id="Combined-Shape" fill="#9B9B9B" xlink:href="#path-1"></use>
            <g id="colors/pick" mask="url(#mask-2)" fill="#78BAAB">
                <rect id="Rectangle" x="0" y="0" width="10" height="10"></rect>
            </g>
        </g>
    </g>
</svg>