<?xml version="1.0" encoding="UTF-8"?>
<svg width="20px" height="20px" viewBox="0 0 20 20" version="1.1" xmlns="http://www.w3.org/2000/svg" xmlns:xlink="http://www.w3.org/1999/xlink">
    <!-- Generator: Sketch 46.2 (44496) - http://www.bohemiancoding.com/sketch -->
    <title>icons/pick</title>
    <desc>Created with Sketch.</desc>
    <defs>
        <path d="M2,3 L12,3 L12,15 L2,15 L2,3 Z M3,4 L3,14 L11,14 L11,4 L3,4 Z M3,15 L5,15 L5,17 L3,17 L3,15 Z M9,15 L11,15 L11,17 L9,17 L9,15 Z M16,13.1213203 L16,17 L15,17 L15,13.1213203 L13.3786797,13.1213203 L15.5,11 L17.6213203,13.1213203 L16,13.1213203 Z M13,5 L18,5 L18,10 L13,10 L13,5 Z" id="path-1"></path>
    </defs>
    <g id="Symbols" stroke="none" stroke-width="1" fill="none" fill-rule="evenodd">
        <g id="icons/pick">
            <mask id="mask-2" fill="white">
                <use xlink:href="#path-1"></use>
            </mask>
            <use id="Combined-Shape" fill="#9B9B9B" xlink:href="#path-1"></use>
            <g id="colors/pick" mask="url(#mask-2)" fill="#78BAAB">
                <rect id="Rectangle" x="0" y="0" width="20" height="20"></rect>
            </g>
        </g>
    </g>
</svg>